<mxfile host="app.diagrams.net" modified="2024-07-02T20:20:09.723Z" agent="Mozilla/5.0 (Windows NT 10.0; Win64; x64) AppleWebKit/537.36 (KHTML, like Gecko) Chrome/126.0.0.0 Safari/537.36" version="24.6.4" etag="tRY6AbKkGBr1-JUvd5Et" type="github">
  <diagram name="Page-1" id="XGP8o_W_im4lqksEk6Pd">
    <mxGraphModel>
      <root>
        <mxCell id="0" />
        <mxCell id="1" parent="0" />
      </root>
    </mxGraphModel>
  </diagram>
</mxfile>
